<svg width="56" height="56" viewBox="0 0 56 56" fill="none" xmlns="http://www.w3.org/2000/svg">
<path d="M37 9H8C6.89543 9 6 9.89543 6 11L37 11C37.5523 11 38 10.5523 38 10C38 9.44771 37.5523 9 37 9Z" fill="#F3F4F4"/>
<path fill-rule="evenodd" clip-rule="evenodd" d="M22.85 43H34.15C34.8449 39.5766 37.8716 37 41.5 37C42.0137 37 42.5153 37.0516 43 37.15V32C43 31.4477 43.4477 31 44 31C44.5523 31 45 31.4477 45 32V37.865C46.9373 38.8891 48.3721 40.7368 48.8379 42.942C51.755 42.5343 54 40.0293 54 37V36.3293C53.6872 36.4398 53.3506 36.5 53 36.5C51.3431 36.5 50 35.1569 50 33.5V32.5C50 31.0621 51.0116 29.8605 52.3619 29.568C51.8047 29.2086 51.141 29 50.4286 29H21.1667C20.5176 29 19.886 28.7895 19.3667 28.4L16.4333 26.2C16.2602 26.0702 16.0497 26 15.8333 26H13V35C13 35.5523 12.5523 36 12 36C11.4477 36 11 35.5523 11 35V26H6V40C6 41.3705 6.91898 42.5263 8.17433 42.8849C8.91302 39.5191 11.9123 37 15.5 37C19.1284 37 22.1551 39.5766 22.85 43ZM28 31C28.5523 31 29 31.4477 29 32V40C29 40.5523 28.5523 41 28 41C27.4477 41 27 40.5523 27 40V32C27 31.4477 27.4477 31 28 31Z" fill="#F3F4F4"/>
<path d="M29 32C29 31.4477 28.5523 31 28 31C27.4477 31 27 31.4477 27 32V40C27 40.5523 27.4477 41 28 41C28.5523 41 29 40.5523 29 40V32Z" fill="#5E9732"/>
<path fill-rule="evenodd" clip-rule="evenodd" d="M19 44.5C19 46.433 17.433 48 15.5 48C13.567 48 12 46.433 12 44.5C12 42.567 13.567 41 15.5 41C17.433 41 19 42.567 19 44.5ZM17 44.5C17 45.3284 16.3284 46 15.5 46C14.6716 46 14 45.3284 14 44.5C14 43.6716 14.6716 43 15.5 43C16.3284 43 17 43.6716 17 44.5Z" fill="#5E9732"/>
<path fill-rule="evenodd" clip-rule="evenodd" d="M45 44.5C45 46.433 43.433 48 41.5 48C39.567 48 38 46.433 38 44.5C38 42.567 39.567 41 41.5 41C43.433 41 45 42.567 45 44.5ZM43 44.5C43 45.3284 42.3284 46 41.5 46C40.6716 46 40 45.3284 40 44.5C40 43.6716 40.6716 43 41.5 43C42.3284 43 43 43.6716 43 44.5Z" fill="#5E9732"/>
<path fill-rule="evenodd" clip-rule="evenodd" d="M20 7V5C20 3.34314 18.6569 2 17 2C15.3431 2 14 3.34314 14 5V7H8C5.79086 7 4 8.79086 4 11V20.1707C3.68722 20.0602 3.35064 20 3 20C1.34315 20 0 21.3431 0 23V32C0 33.6569 1.34315 35 3 35C3.35064 35 3.68722 34.9398 4 34.8293V40C4 42.4227 5.72308 44.443 8.0106 44.9021C8.21955 48.8573 11.4928 52 15.5 52C19.4741 52 22.7263 48.909 22.9836 45H34.0164C34.2737 48.909 37.5259 52 41.5 52C45.4945 52 48.7597 48.8772 48.9873 44.9397C52.9398 44.4532 56 41.084 56 37V32.5C56 32.434 55.9979 32.3686 55.9937 32.3037C55.854 29.351 53.4158 27 50.4286 27H44.8747L39.4509 14.0664C39.2194 13.5143 38.8962 13.0195 38.5033 12.5968C39.3982 12.0776 40 11.1091 40 10C40 8.34315 38.6569 7 37 7H31V5C31 3.34314 29.6569 2 28 2C26.3431 2 25 3.34314 25 5V7H20ZM18 7V5C18 4.44771 17.5523 4 17 4C16.4477 4 16 4.44771 16 5V7L18 7ZM34.15 43H22.85C22.1551 39.5766 19.1284 37 15.5 37C11.9123 37 8.91302 39.5191 8.17433 42.8849C6.91898 42.5263 6 41.3705 6 40V26H11V35C11 35.5523 11.4477 36 12 36C12.5523 36 13 35.5523 13 35V26H15.8333C16.0497 26 16.2602 26.0702 16.4333 26.2L19.3667 28.4C19.886 28.7895 20.5176 29 21.1667 29H50.4286C51.141 29 51.8047 29.2086 52.3619 29.568C51.0116 29.8605 50 31.0621 50 32.5V33.5C50 35.1569 51.3431 36.5 53 36.5C53.3506 36.5 53.6872 36.4398 54 36.3293V37C54 40.0293 51.755 42.5343 48.8379 42.942C48.3721 40.7368 46.9373 38.8891 45 37.865V32C45 31.4477 44.5523 31 44 31C43.4477 31 43 31.4477 43 32V37.15C42.5153 37.0516 42.0137 37 41.5 37C37.8716 37 34.8449 39.5766 34.15 43ZM13 24H15.8333C16.4824 24 17.114 24.2105 17.6333 24.6L20.5667 26.8C20.7398 26.9298 20.9503 27 21.1667 27H27V13H13L13 24ZM29 13V27H42.7059L37.6065 14.8398C37.1393 13.7257 36.0497 13.0007 34.8418 13L29 13ZM11 13H6V24H11V13ZM4 23C3.99947 22.4482 3.55196 22 3 22C2.44772 22 2 22.4477 2 23L2 32C2 32.5523 2.44772 33 3 33C3.55172 33 3.99908 32.5532 4 32.0017L4 23ZM8 9C6.89543 9 6 9.89543 6 11L37 11C37.5523 11 38 10.5523 38 10C38 9.44771 37.5523 9 37 9L8 9ZM29 7V5C29 4.44771 28.5523 4 28 4C27.4477 4 27 4.44771 27 5V7L29 7ZM54 33.5V32.5714C54 32.5207 53.9989 32.4702 53.9968 32.42C53.9561 31.9051 53.5254 31.5 53 31.5C52.4477 31.5 52 31.9477 52 32.5V33.5C52 34.0523 52.4477 34.5 53 34.5C53.5523 34.5 54 34.0523 54 33.5ZM21 44.5C21 47.5376 18.5376 50 15.5 50C12.4624 50 10 47.5376 10 44.5C10 41.4624 12.4624 39 15.5 39C18.5376 39 21 41.4624 21 44.5ZM47 44.5C47 47.5376 44.5376 50 41.5 50C38.4624 50 36 47.5376 36 44.5C36 41.4624 38.4624 39 41.5 39C44.5376 39 47 41.4624 47 44.5Z" fill="#5E9732"/>
</svg>
