<svg width="56" height="56" viewBox="0 0 56 56" fill="none" xmlns="http://www.w3.org/2000/svg">
<path d="M11.239 36.8118C10.208 38.702 10.5455 41.0455 12.068 42.568C13.9634 44.4634 17.0366 44.4634 18.932 42.568C20.4545 41.0455 20.792 38.702 19.761 36.8118L15.5 29L11.239 36.8118ZM15.5 33.1767L18.0052 37.7695C18.6114 38.8808 18.4129 40.2586 17.5178 41.1538C16.4034 42.2682 14.5966 42.2682 13.4822 41.1538C12.5871 40.2586 12.3886 38.8808 12.9948 37.7695L15.5 33.1767Z" fill="#040404"/>
<path d="M7 10.7324C6.4022 10.3866 6 9.74028 6 9V5C6 2.79086 7.79086 1 10 1H21C23.2091 1 25 2.79086 25 5V9C25 9.74028 24.5978 10.3866 24 10.7324V14.5279C24 14.6831 24.0361 14.8362 24.1056 14.9751L26.6833 20.1305C26.8916 20.5471 27 21.0064 27 21.4721V49C27 52.3137 24.3137 55 21 55H10C6.68629 55 4 52.3137 4 49V21.4721C4 21.0064 4.10844 20.5471 4.31672 20.1305L6.89443 14.9751C6.96385 14.8362 7 14.6831 7 14.5279V10.7324ZM10 3C8.89543 3 8 3.89543 8 5V9H23V5C23 3.89543 22.1046 3 21 3H10ZM22 11H9V14L22 14V11ZM6.11803 21H24.882L22.382 16L8.61803 16L6.11803 21ZM25 23H6V49C6 51.2091 7.79086 53 10 53H21C23.2091 53 25 51.2091 25 49V23Z" fill="#040404"/>
<path d="M36.239 36.8118L40.5 29L44.761 36.8118C45.792 38.702 45.4545 41.0455 43.932 42.568C42.0366 44.4634 38.9634 44.4634 37.068 42.568C35.5455 41.0455 35.208 38.702 36.239 36.8118ZM37.9948 37.7695C37.3886 38.8808 37.5871 40.2586 38.4822 41.1538C39.5966 42.2682 41.4034 42.2682 42.5178 41.1538C43.4129 40.2586 43.6114 38.8808 43.0052 37.7695L40.5 33.1767L37.9948 37.7695Z" fill="#040404"/>
<path d="M32 10.7324V14.5279C32 14.6831 31.9639 14.8362 31.8944 14.9751L29.3167 20.1305C29.1084 20.5471 29 21.0064 29 21.4721V49C29 52.3137 31.6863 55 35 55H46C49.3137 55 52 52.3137 52 49V21.4721C52 21.0064 51.8916 20.5471 51.6833 20.1305L49.1056 14.9751C49.0361 14.8362 49 14.6831 49 14.5279V10.7324C49.5978 10.3866 50 9.74028 50 9V5C50 2.79086 48.2091 1 46 1H35C32.7909 1 31 2.79086 31 5V9C31 9.74028 31.4022 10.3866 32 10.7324ZM47 14L34 14V11H47V14ZM33.618 16L47.382 16L49.882 21H31.118L33.618 16ZM31 49V23H50V49C50 51.2091 48.2091 53 46 53H35C32.7909 53 31 51.2091 31 49ZM46 3C47.1046 3 48 3.89543 48 5V9H33V5C33 3.89543 33.8954 3 35 3H46Z" fill="#040404"/>
</svg>
